<svg width="53" height="40" viewBox="0 0 53 40" fill="none" xmlns="http://www.w3.org/2000/svg">
<path d="M44.0745 3.28961C40.7561 1.76699 37.1976 0.645196 33.477 0.00269521C33.4093 -0.00970486 33.3416 0.0212836 33.3067 0.0832619C32.849 0.89723 32.3421 1.95912 31.9871 2.79376C27.9853 2.19465 24.0041 2.19465 20.0844 2.79376C19.7294 1.94057 19.204 0.89723 18.7443 0.0832619C18.7094 0.0233515 18.6417 -0.00763696 18.574 0.00269521C14.8554 0.643143 11.297 1.76494 7.97652 3.28961C7.94777 3.30201 7.92313 3.32269 7.90678 3.34952C1.15711 13.4334 -0.691911 23.2694 0.215155 32.9835C0.21926 33.031 0.245938 33.0765 0.282878 33.1054C4.73612 36.3757 9.04985 38.3611 13.2835 39.6771C13.3512 39.6978 13.423 39.673 13.4661 39.6172C14.4676 38.2496 15.3603 36.8076 16.1257 35.2911C16.1709 35.2023 16.1278 35.0969 16.0355 35.0618C14.6195 34.5247 13.2711 33.8697 11.9742 33.126C11.8716 33.0661 11.8634 32.9194 11.9577 32.8491C12.2307 32.6446 12.5037 32.4318 12.7643 32.217C12.8114 32.1777 12.8771 32.1694 12.9326 32.1942C21.4532 36.0844 30.6778 36.0844 39.0979 32.1942C39.1533 32.1674 39.219 32.1757 39.2682 32.2149C39.5289 32.4298 39.8019 32.6446 40.0768 32.8491C40.1712 32.9194 40.1651 33.0661 40.0625 33.126C38.7655 33.8842 37.4172 34.5247 35.9991 35.0597C35.9068 35.0949 35.8657 35.2023 35.9109 35.2911C36.6927 36.8054 37.5855 38.2475 38.5684 39.6151C38.6095 39.673 38.6834 39.6978 38.7511 39.6771C43.0053 38.3611 47.319 36.3757 51.7722 33.1054C51.8112 33.0765 51.8359 33.033 51.84 32.9855C52.9255 21.755 50.0217 11.9997 44.1422 3.35158C44.1278 3.32269 44.1032 3.30201 44.0745 3.28961ZM17.3981 27.0686C14.8329 27.0686 12.7191 24.7135 12.7191 21.8211C12.7191 18.9288 14.7919 16.5737 17.3981 16.5737C20.0249 16.5737 22.1182 18.9495 22.0771 21.8211C22.0771 24.7135 20.0044 27.0686 17.3981 27.0686ZM34.698 27.0686C32.1328 27.0686 30.0191 24.7135 30.0191 21.8211C30.0191 18.9288 32.0917 16.5737 34.698 16.5737C37.3248 16.5737 39.418 18.9495 39.3771 21.8211C39.3771 24.7135 37.3248 27.0686 34.698 27.0686Z" fill="url(#paint0_linear_1_281)"/>
<defs>
<linearGradient id="paint0_linear_1_281" x1="-1.66285e-07" y1="39.6775" x2="51.5362" y2="39.6763" gradientUnits="userSpaceOnUse">
<stop stop-color="#22A2FF"/>
<stop offset="1" stop-color="#F72BEE"/>
</linearGradient>
</defs>
</svg>
