<svg width="50" height="41" viewBox="0 0 50 41" fill="none" xmlns="http://www.w3.org/2000/svg">
<path d="M49.4634 4.75854C47.6435 5.56565 45.6877 6.11114 43.6349 6.35648C45.7302 5.10049 47.3392 3.11175 48.0969 0.742161C46.1362 1.90497 43.9643 2.74953 41.6528 3.20474C39.8016 1.23247 37.1642 0 34.2455 0C28.641 0 24.0972 4.5436 24.0972 10.1478C24.0972 10.9431 24.1871 11.7177 24.3601 12.4604C15.926 12.0372 8.44853 7.99712 3.44339 1.85757C2.56988 3.35636 2.06943 5.09959 2.06943 6.95933C2.06943 10.48 3.86115 13.5861 6.58409 15.4059C4.92047 15.3532 3.35582 14.8967 1.98747 14.1367C1.98675 14.179 1.98675 14.2215 1.98675 14.2642C1.98675 19.1811 5.48478 23.2827 10.1272 24.2148C9.27554 24.4467 8.37905 24.5707 7.45344 24.5707C6.79957 24.5707 6.16379 24.5072 5.5443 24.3887C6.83557 28.4204 10.5833 31.3543 15.0239 31.4363C11.5509 34.158 7.17517 35.7803 2.42079 35.7803C1.60174 35.7803 0.793904 35.7324 0 35.6387C4.49095 38.5179 9.8252 40.1978 15.556 40.1978C34.2218 40.1978 44.429 24.7346 44.429 11.3245C44.429 10.8845 44.4192 10.4469 44.3997 10.0117C46.3822 8.58097 48.1028 6.7936 49.4634 4.75854Z" fill="url(#paint0_linear_1_282)"/>
<defs>
<linearGradient id="paint0_linear_1_282" x1="-1.57979e-07" y1="40.1909" x2="48.9618" y2="40.1898" gradientUnits="userSpaceOnUse">
<stop stop-color="#22A2FF"/>
<stop offset="1" stop-color="#F72BEE"/>
</linearGradient>
</defs>
</svg>
